<?xml version="1.0" encoding="utf-8"?>
<!-- Generator: Adobe Illustrator 15.1.0, SVG Export Plug-In . SVG Version: 6.00 Build 0)  -->
<!DOCTYPE svg PUBLIC "-//W3C//DTD SVG 1.1//EN" "http://www.w3.org/Graphics/SVG/1.1/DTD/svg11.dtd">
<svg version="1.1" id="Layer_1" xmlns="http://www.w3.org/2000/svg" xmlns:xlink="http://www.w3.org/1999/xlink" x="0px" y="0px"
	 width="300px" height="100px" viewBox="0 0 300 100" enable-background="new 0 0 300 100" xml:space="preserve">
<g>
	<polygon points="33.17,19.137 33.17,19.091 82.014,19.091 82.014,1.256 14.096,1.256 14.096,38.197 33.163,19.129 	"/>
	<polygon points="33.17,79.455 33.17,56.271 71.721,56.271 71.721,39.531 36.711,39.531 14.096,62.147 14.096,97.296 59.457,97.296 
		77.298,79.455 	"/>
	<path d="M108.906,47.771v-28.68h14.816c10.977,0,17.699,5.213,17.699,14.269c0,4.428-1.593,8.009-4.569,10.494l-21.751,21.751
		h9.033c23.051,0,37.046-12.074,37.046-32.245c0-20.029-13.995-32.103-37.046-32.103H89.837v65.66l19.145-19.145H108.906z"/>
	<polygon points="89.837,97.296 108.906,97.296 108.906,71.799 89.837,90.868 	"/>
	<polygon points="167.769,97.296 186.841,97.296 186.841,71.062 167.769,90.136 	"/>
	<polygon points="186.841,1.256 186.781,1.256 167.769,19.496 167.769,66.184 186.841,47.11 	"/>
	<path d="M267.926,66.018c-4.801,8.365-14.95,14.133-25.927,14.133c-17.149,0-29.913-12.074-29.913-30.874
		c0-1.235,0.06-2.443,0.168-3.628l-18.078,18.078c6.011,21.223,25.092,35.486,47.823,35.486c20.167,0,37.181-11.107,45.14-28.125
		L267.926,66.018z"/>
	<path d="M192.802,41.15l41.201-41.202C212.787,3.184,196.119,19.178,192.802,41.15z"/>
	<path d="M241.999,18.132c9.463,0,19.07,4.531,24.148,11.663l19.481-5.071c-6.235-11.262-16.604-19.629-29.145-23.307
		l-16.796,16.797C240.448,18.164,241.215,18.132,241.999,18.132z"/>
</g>
</svg>
